<svg width="800px" height="800px" viewBox="0 0 24 24" xmlns:rdf="http://www.w3.org/1999/02/22-rdf-syntax-ns#" xmlns="http://www.w3.org/2000/svg" version="1.1" xmlns:cc="http://creativecommons.org/ns#" xmlns:dc="http://purl.org/dc/elements/1.1/">
  <defs>
    <mask id="p-cutout" x="0" y="0" width="24" height="24" maskUnits="userSpaceOnUse" maskContentUnits="userSpaceOnUse">
      <rect width="24" height="24" fill="white"/>
      <path d="M12.121 15.717Q11.627 15.717 11.367 15.444Q11.107 15.171 11.107 14.677L11.107 7.462Q11.107 6.955 11.374 6.695Q11.64 6.435 12.134 6.435L15.293 6.435Q16.827 6.435 17.659 7.209Q18.491 7.982 18.491 9.36Q18.491 10.738 17.659 11.518Q16.827 12.298 15.293 12.298L13.122 12.298L13.122 14.677Q13.122 15.171 12.869 15.444Q12.615 15.717 12.121 15.717ZM13.122 10.738L14.955 10.738Q15.735 10.738 16.145 10.387Q16.554 10.036 16.554 9.36Q16.554 8.684 16.145 8.346Q15.735 8.008 14.955 8.008L13.122 8.008Z" fill="black"/>
    </mask>
  </defs>
  <g mask="url(#p-cutout)">
    <path d="m3 8v2 1 3 1 5 1c0 1.105 0.8954 2 2 2h14c1.105 0 2-0.895 2-2v-1-5-4-3h-18z" fill="#00598a"/>
    <path d="m3 7v2 1 3 1 5 1c0 1.1 0.8954 2 2 2h14c1.105 0 2-0.9 2-2v-1-5-4-3h-18z" fill="#74d4ff"/>
    <path d="m3 6v2 1 3 1 5 1c0 1.1 0.8954 2 2 2h14c1.105 0 2-0.9 2-2v-1-5-4-3h-18z" fill="#00a6f4"/>
    <path d="m3 5v2 1 3 1 5 1c0 1.1 0.8954 2 2 2h14c1.105 0 2-0.9 2-2v-1-5-4-3h-18z" fill="#74d4ff"/>
    <path d="m5 1c-1.1046 0-2 0.8954-2 2v1 4 2 1 3 1 5 1c0 1.105 0.8954 2 2 2h2v-1h-1.5c-0.8284 0-1.5-0.672-1.5-1.5s0.6716-1.5 1.5-1.5h12.5 1c1.105 0 2-0.895 2-2v-1-5-4-3-1c0-1.1046-0.895-2-2-2h-4-10z" fill="#00598a"/>
    <path d="m8 1v18h1 9 1c1.105 0 2-0.895 2-2v-1-5-4-3-1c0-1.1046-0.895-2-2-2h-4-6-1z" fill="#0069a8"/>
  </g>
</svg>
